<svg xmlns="http://www.w3.org/2000/svg" xmlns:xlink="http://www.w3.org/1999/xlink" style="width: 100%; height: 100%" viewBox="0 0 128 128" preserveAspectRatio="none" width="128" height="128"><defs><svg width="128" height="128" viewBox="0 0 128 128" fill="none" xmlns="http://www.w3.org/2000/svg" id="svg304246262_1363">
<rect x="4" y="22" width="104" height="104" rx="24" transform="rotate(-10 4 22)" fill="#CCFF9C"></rect>
<path fill-rule="evenodd" clip-rule="evenodd" d="M49.1933 22.8407C26.3621 31.1506 14.5902 56.3955 22.9001 79.2267C31.21 102.058 56.4548 113.83 79.286 105.52C102.117 97.21 113.889 71.9652 105.579 49.1339C97.2693 26.3027 72.0245 14.5309 49.1933 22.8407ZM51.5834 29.4076C70.7879 22.4177 92.0225 32.3196 99.0124 51.5241C106.002 70.7285 96.1004 91.9632 76.8959 98.953C57.6914 105.943 36.4568 96.041 29.4669 76.8365C22.4771 57.6321 32.379 36.3974 51.5834 29.4076ZM42.2193 72.1664C46.5863 84.1647 59.8531 90.3511 71.8514 85.9841C83.7297 81.6607 89.9118 68.6147 85.7969 56.7123L85.6691 56.3519L92.2359 53.9618C97.923 69.5869 89.8666 86.8638 74.2415 92.5509C58.7727 98.1811 41.6849 90.3414 35.8265 75.023L35.6525 74.5565L42.2193 72.1664ZM55.9004 70.6377C58.7371 68.9837 59.635 62.7615 57.9059 56.7402C56.1768 50.7188 52.4755 47.1784 49.6389 48.8325C46.8022 50.4866 45.9043 56.7087 47.6334 62.7301C49.3625 68.7514 53.0638 72.2918 55.9004 70.6377ZM73.2957 64.306C76.1324 62.6519 77.0302 56.4298 75.3012 50.4084C73.5721 44.3871 69.8708 40.8467 67.0341 42.5008C64.1974 44.1549 63.2995 50.377 65.0286 56.3984C66.7577 62.4197 70.459 65.9601 73.2957 64.306Z" fill="black"></path>
</svg></defs><use href="#svg304246262_1363"></use></svg>